<svg xmlns="http://www.w3.org/2000/svg" x="0px" y="0px" width="100" height="100" viewBox="0 0 40 40">
<path fill="#fff" d="M20,38.5C9.799,38.5,1.5,30.201,1.5,20S9.799,1.5,20,1.5S38.5,9.799,38.5,20S30.201,38.5,20,38.5z"></path><path fill="#dff0fe" d="M38.5,20c0-1.758-0.262-3.453-0.722-5.066c-2.632,0.963-4.149,0.563-6.769-3.446	c-3.933-6.013-9.35-10.617-18.781-8.254C5.904,6.179,1.5,12.577,1.5,20c0,10.201,8.299,18.5,18.5,18.5S38.5,30.201,38.5,20z"></path><path fill="#b6dcfe" d="M38.5,20c0-0.406-0.035-0.803-0.061-1.202c-2.058,2.523-7.043,4.593-12.713-4.522	C19.65,4.509,12.393,2.914,5.61,8.4C3.044,11.576,1.5,15.609,1.5,20c0,10.201,8.299,18.5,18.5,18.5S38.5,30.201,38.5,20z"></path><path fill="#98ccfd" d="M20,38.5c9.635,0,17.565-7.407,18.415-16.825c-0.027-0.049-0.042-0.075-0.042-0.075	C36.555,28.814,27.35,31.406,20,20.002C11.717,7.17,2.062,12.433,1.5,20C1.5,30.201,9.799,38.5,20,38.5z"></path><path fill="#4788c7" d="M20,1C9.523,1,1,9.523,1,20s8.523,19,19,19s19-8.523,19-19S30.477,1,20,1z M35.05,29.845	c-4.422,5.013-12.573,6.886-20.777-4.12C8.629,18.151,2.57,22.171,3.628,27.438c-0.927-2.032-1.479-4.263-1.586-6.613	c0.158-3.83,2.307-6.97,5.401-7.839c3.939-1.105,8.478,1.618,12.138,7.288c3.337,5.177,7.418,8.037,11.378,8.037	c0.431,0,0.86-0.034,1.287-0.103c2.006-0.322,3.747-1.44,5.002-3.087C36.744,26.813,35.999,28.4,35.05,29.845z M5.573,9.282	c2.946-2.832,5.904-3.84,8.949-3.432c3.831,0.507,7.558,3.512,10.779,8.689c2.697,4.337,5.545,6.647,8.465,6.868	c0.142,0.011,0.282,0.016,0.424,0.016c1.362,0,2.707-0.498,3.807-1.382c-0.001,0.486-0.034,0.965-0.073,1.441	c-0.828,3.1-3.053,5.291-5.838,5.738c-3.941,0.625-8.191-2.098-11.667-7.489C14.784,11,9.278,11.431,7.172,12.023	c-1.932,0.542-3.531,1.856-4.619,3.63C3.136,13.315,4.174,11.16,5.573,9.282z M30.59,11.763c1.863,2.85,3.273,4.063,5.086,4.063	c0.535,0,1.108-0.11,1.735-0.311c0.269,1.045,0.448,2.122,0.525,3.231c-0.583,0.609-2.013,1.812-4.094,1.666	c-2.548-0.193-5.208-2.405-7.691-6.398c-3.385-5.441-7.36-8.606-11.497-9.153c-1.858-0.247-3.733,0.053-5.566,0.859	c0.918-0.703,1.903-1.318,2.947-1.836C21.97,0.967,27.219,6.609,30.59,11.763z M37.152,14.553c-1.967,0.665-3.277,0.409-5.726-3.337	c-2.602-3.978-6.667-8.761-13.612-9.07C18.533,2.059,19.259,2,20,2C28.026,2,34.838,7.283,37.152,14.553z"></path>
</svg>